<svg width="16" height="26" viewBox="0 0 16 26" fill="none" xmlns="http://www.w3.org/2000/svg">
<path d="M15.2351 21.8982L6.45396 13.1171L15.2351 4.33588C15.4447 4.12635 15.6109 3.8776 15.7243 3.60384C15.8377 3.33007 15.896 3.03665 15.896 2.74033C15.896 2.44401 15.8377 2.15059 15.7243 1.87683C15.6109 1.60306 15.4447 1.35432 15.2351 1.14478C15.0256 0.935254 14.7768 0.769046 14.5031 0.655649C14.2293 0.542252 13.9359 0.483887 13.6396 0.483887C13.3433 0.483887 13.0498 0.542252 12.7761 0.655649C12.5023 0.769046 12.2536 0.935254 12.044 1.14478L1.656 11.5328C1.44619 11.7422 1.27974 11.9909 1.16617 12.2647C1.0526 12.5385 0.994141 12.832 0.994141 13.1284C0.994141 13.4248 1.0526 13.7183 1.16617 13.9921C1.27974 14.2658 1.44619 14.5145 1.656 14.7239L12.044 25.1119C12.9267 25.9946 14.3525 25.9946 15.2351 25.1119C16.0951 24.2293 16.1178 22.7809 15.2351 21.8982Z" fill="white"/>
</svg>
