<svg width="187" height="59" viewBox="0 0 187 59" fill="none" xmlns="http://www.w3.org/2000/svg">
<path d="M29.2304 0.663086C13.2211 0.663086 0.242188 13.6416 0.242188 29.6509C0.242188 45.661 13.2211 58.6384 29.2304 58.6384C45.2415 58.6384 58.219 45.661 58.219 29.6509C58.219 13.6427 45.2415 0.664542 29.23 0.664542L29.2304 0.663086ZM42.5245 42.4719C42.4008 42.6746 42.2383 42.851 42.0464 42.9908C41.8544 43.1306 41.6368 43.2313 41.4059 43.2869C41.175 43.3425 40.9355 43.3521 40.7009 43.3151C40.4663 43.278 40.2414 43.195 40.0389 43.0709C33.2328 38.9135 24.6646 37.972 14.5742 40.2775C14.1069 40.3837 13.6166 40.3001 13.211 40.0451C12.8054 39.79 12.5176 39.3843 12.411 38.9171C12.3579 38.6858 12.3509 38.4463 12.3905 38.2123C12.43 37.9783 12.5154 37.7544 12.6416 37.5534C12.7678 37.3525 12.9325 37.1784 13.1261 37.0411C13.3197 36.9039 13.5385 36.8062 13.7699 36.7536C24.8124 34.2305 34.2842 35.3168 41.9255 39.9867C42.1281 40.1105 42.3043 40.273 42.444 40.465C42.5838 40.6569 42.6844 40.8746 42.74 41.1054C42.7956 41.3362 42.8051 41.5758 42.7681 41.8103C42.731 42.0449 42.6485 42.2694 42.5245 42.4719ZM46.0727 34.5788C45.418 35.6422 44.0268 35.9781 42.9637 35.3238C35.1722 30.5345 23.2941 29.1473 14.0778 31.9451C13.5041 32.1187 12.8849 32.0577 12.3562 31.7754C11.8274 31.4931 11.4323 31.0125 11.2574 30.4392C11.0844 29.8656 11.146 29.2468 11.4284 28.7185C11.7109 28.1902 12.1913 27.7954 12.7644 27.6206C23.2923 24.4261 36.38 25.9735 45.3281 31.472C46.3908 32.1263 46.7271 33.5176 46.0727 34.5788ZM46.377 26.3596C37.0347 20.8105 21.6197 20.3003 12.6996 23.0079C11.2672 23.4424 9.75256 22.6338 9.31877 21.2014C9.11008 20.5133 9.18317 19.7704 9.522 19.1362C9.86082 18.5019 10.4376 18.0282 11.1256 17.8191C21.3653 14.7105 38.3878 15.311 49.1442 21.6967C49.4508 21.8781 49.7185 22.1181 49.9322 22.4031C50.1458 22.6881 50.3011 23.0125 50.3892 23.3576C50.4773 23.7027 50.4965 24.0618 50.4456 24.4143C50.3947 24.7669 50.2747 25.1059 50.0926 25.412C49.3313 26.7003 47.6627 27.125 46.3784 26.36L46.377 26.3596ZM79.1096 27.423C74.1042 26.2293 73.2148 25.392 73.2148 23.6317C73.2148 21.9685 74.7793 20.8495 77.1087 20.8495C79.3658 20.8495 81.6021 21.6996 83.949 23.449C84.0182 23.5017 84.108 23.5229 84.1947 23.509C84.2382 23.5028 84.2801 23.4878 84.3176 23.4648C84.3552 23.4418 84.3876 23.4114 84.413 23.3755L86.8567 19.9306C86.905 19.8623 86.9255 19.7782 86.9139 19.6953C86.9024 19.6125 86.8597 19.5372 86.7945 19.4848C84.001 17.2441 80.8579 16.1549 77.1815 16.1549C71.778 16.1549 68.0016 19.3978 68.0016 24.0382C68.0016 29.0141 71.2587 30.7762 76.8875 32.1362C81.6749 33.2392 82.4846 34.1632 82.4846 35.8154C82.4846 37.6467 80.8506 38.7854 78.2201 38.7854C75.2986 38.7854 72.9134 37.7992 70.2481 35.4933C70.1816 35.4373 70.0961 35.4089 70.0093 35.414C69.9661 35.4169 69.9238 35.4285 69.8851 35.4481C69.8465 35.4677 69.8121 35.4948 69.7841 35.5279L67.0426 38.7887C66.9876 38.854 66.9601 38.9383 66.9659 39.0235C66.9718 39.1088 67.0105 39.1885 67.0739 39.2457C70.1753 42.0152 73.9899 43.476 78.1091 43.476C83.9319 43.476 87.6945 40.2946 87.6945 35.3689C87.7047 31.2125 85.2162 28.9107 79.1201 27.4277L79.1096 27.423ZM100.869 22.4868C98.3458 22.4868 96.2758 23.481 94.5657 25.5182V23.2255C94.5657 23.0443 94.4201 22.8969 94.2404 22.8969H89.7576C89.6709 22.8974 89.588 22.9322 89.527 22.9938C89.466 23.0553 89.4319 23.1385 89.4322 23.2252V48.703C89.4322 48.8828 89.5778 49.0316 89.7576 49.0316H94.2404C94.327 49.0309 94.4099 48.996 94.4708 48.9344C94.5318 48.8728 94.5659 48.7896 94.5657 48.703V40.6614C96.2758 42.5756 98.3458 43.5138 100.869 43.5138C105.56 43.5138 110.309 39.9037 110.309 33.0016C110.316 26.098 105.566 22.4864 100.872 22.4864L100.869 22.4868ZM105.096 33.0016C105.096 36.5145 102.932 38.9688 99.8306 38.9688C96.7671 38.9688 94.4547 36.4039 94.4547 33.0016C94.4547 29.5989 96.7671 27.0343 99.8306 27.0343C102.88 27.0343 105.096 29.5432 105.096 33.0016ZM122.476 22.4868C116.436 22.4868 111.704 27.1377 111.704 33.0769C111.704 38.9517 116.405 43.552 122.404 43.552C128.465 43.552 133.211 38.9171 133.211 33.0016C133.211 27.106 128.496 22.4879 122.476 22.4879V22.4868ZM122.476 39.0034C119.264 39.0034 116.841 36.421 116.841 32.9998C116.841 29.5629 119.181 27.0685 122.404 27.0685C125.637 27.0685 128.073 29.6498 128.073 33.0747C128.073 36.5112 125.72 39.0034 122.476 39.0034ZM146.108 22.8969H141.176V17.8548C141.176 17.6739 141.03 17.5265 140.85 17.5265H136.367C136.28 17.5267 136.197 17.5613 136.135 17.6228C136.073 17.6843 136.039 17.7677 136.038 17.8548V22.8969H133.885C133.799 22.8974 133.716 22.9322 133.655 22.9938C133.594 23.0553 133.56 23.1385 133.56 23.2252V27.0769C133.56 27.1636 133.594 27.2469 133.655 27.3085C133.716 27.37 133.799 27.405 133.885 27.4055H136.038V37.3734C136.038 41.3991 138.043 43.4414 141.999 43.4414C143.605 43.4414 144.938 43.1088 146.195 42.3959C146.245 42.368 146.288 42.3269 146.317 42.2769C146.346 42.2269 146.361 42.1699 146.361 42.112V38.4426C146.361 38.387 146.346 38.3325 146.319 38.284C146.292 38.2356 146.253 38.195 146.205 38.166C146.158 38.1357 146.104 38.1185 146.048 38.116C145.992 38.1135 145.936 38.1258 145.886 38.1518C145.025 38.5849 144.19 38.7854 143.256 38.7854C141.819 38.7854 141.175 38.1311 141.175 36.6703V27.4077H146.108C146.195 27.4072 146.278 27.3724 146.339 27.3107C146.4 27.2491 146.434 27.1658 146.433 27.0791V23.2273C146.435 23.1844 146.428 23.1416 146.412 23.1015C146.396 23.0614 146.373 23.0249 146.343 22.9942C146.313 22.9634 146.277 22.9391 146.237 22.9227C146.197 22.9063 146.155 22.8982 146.112 22.8987L146.108 22.8969ZM163.292 22.9166V22.2972C163.292 20.4754 163.991 19.6631 165.555 19.6631C166.491 19.6631 167.241 19.8487 168.083 20.1289C168.132 20.1455 168.184 20.15 168.236 20.1421C168.287 20.1342 168.336 20.1142 168.378 20.0836C168.42 20.053 168.454 20.0129 168.477 19.9664C168.501 19.92 168.513 19.8686 168.512 19.8167L168.512 16.0403C168.513 15.9697 168.49 15.9008 168.449 15.844C168.407 15.7872 168.348 15.7456 168.28 15.7255C167.394 15.4613 166.258 15.1905 164.555 15.1905C160.419 15.1905 158.227 17.5214 158.227 21.9289V22.8773H156.074C155.987 22.8774 155.904 22.9121 155.842 22.9736C155.781 23.0351 155.746 23.1184 155.745 23.2055V27.0769C155.745 27.2578 155.895 27.4055 156.074 27.4055H158.227V42.7765C158.227 42.9599 158.377 43.1055 158.556 43.1055H163.035C163.219 43.1055 163.364 42.9599 163.364 42.7765V27.4066H167.55L173.96 42.7765C173.233 44.3898 172.517 44.7115 171.54 44.7115C170.751 44.7115 169.917 44.4764 169.069 44.0091C168.989 43.9685 168.896 43.9597 168.809 43.9847C168.767 43.9991 168.727 44.0222 168.694 44.0526C168.661 44.083 168.634 44.12 168.615 44.1612L167.096 47.4948C167.061 47.5705 167.056 47.6567 167.083 47.7358C167.109 47.8149 167.165 47.881 167.238 47.9206C168.823 48.7791 170.253 49.1459 172.022 49.1459C175.331 49.1459 177.162 47.6021 178.772 43.4552L186.547 23.3653C186.567 23.3156 186.574 23.2617 186.568 23.2084C186.562 23.1551 186.543 23.1042 186.512 23.0603C186.483 23.0163 186.443 22.9803 186.397 22.9554C186.35 22.9305 186.298 22.9175 186.245 22.9177H181.579C181.511 22.9173 181.444 22.9383 181.388 22.9778C181.332 23.0173 181.29 23.0732 181.268 23.1378L176.487 36.7882L171.253 23.1287C171.23 23.0668 171.188 23.0135 171.134 22.9758C171.079 22.9381 171.015 22.9179 170.949 22.9177H163.292V22.9166ZM153.329 22.8969H148.847C148.76 22.8973 148.676 22.932 148.615 22.9935C148.553 23.0549 148.518 23.1382 148.518 23.2252V42.7765C148.518 42.9599 148.667 43.1055 148.847 43.1055H153.329C153.509 43.1055 153.658 42.9599 153.658 42.7765V23.2266C153.658 23.1834 153.65 23.1406 153.634 23.1006C153.617 23.0606 153.593 23.0243 153.562 22.9938C153.532 22.9633 153.495 22.9391 153.455 22.9226C153.415 22.9062 153.373 22.8978 153.329 22.898V22.8969ZM151.114 13.9939C149.338 13.9939 147.898 15.4314 147.898 17.2066C147.898 17.6289 147.981 18.0471 148.143 18.4372C148.304 18.8274 148.541 19.1819 148.84 19.4805C149.138 19.7791 149.493 20.016 149.883 20.1776C150.273 20.3391 150.691 20.4223 151.114 20.4222C152.89 20.4222 154.326 18.9833 154.326 17.2066C154.326 16.3547 153.987 15.5377 153.385 14.9352C152.783 14.3328 151.966 13.9942 151.114 13.9939Z" fill="#EA403C"/>
</svg>
