<svg width="27" height="27" viewBox="0 0 27 27" fill="none" xmlns="http://www.w3.org/2000/svg">
<path d="M12.6988 0.57959C11.7471 1.46647 10.9836 2.53598 10.4542 3.72431C9.92469 4.91263 9.63998 6.19543 9.61703 7.49617C9.59408 8.79692 9.83336 10.089 10.3206 11.2952C10.8078 12.5015 11.533 13.5973 12.4529 14.5172C13.3728 15.4371 14.4686 16.1623 15.6749 16.6495C16.8811 17.1367 18.1732 17.376 19.4739 17.3531C20.7747 17.3301 22.0575 17.0454 23.2458 16.5159C24.4341 15.9864 25.5036 15.223 26.3905 14.2713C25.9798 21.0331 20.3662 26.3884 13.501 26.3884C6.3658 26.3884 0.583008 20.6056 0.583008 13.4717C0.583008 6.60651 5.93826 0.992923 12.6988 0.57959Z" fill="#DEDEDE"/>
</svg>
