<svg width="16" height="16" viewBox="0 0 16 16" fill="none" xmlns="http://www.w3.org/2000/svg">
<path d="M11.8203 11.1504L15.3203 14.6504M1.32031 6.65039C1.32031 7.43832 1.47551 8.21854 1.77704 8.94649C2.07856 9.67444 2.52052 10.3359 3.07767 10.893C3.63482 11.4502 4.29626 11.8921 5.02421 12.1937C5.75217 12.4952 6.53238 12.6504 7.32031 12.6504C8.10824 12.6504 8.88846 12.4952 9.61641 12.1937C10.3444 11.8921 11.0058 11.4502 11.563 10.893C12.1201 10.3359 12.5621 9.67444 12.8636 8.94649C13.1651 8.21854 13.3203 7.43832 13.3203 6.65039C13.3203 5.05909 12.6882 3.53297 11.563 2.40775C10.4377 1.28253 8.91161 0.650391 7.32031 0.650391C5.72901 0.650391 4.20289 1.28253 3.07767 2.40775C1.95245 3.53297 1.32031 5.05909 1.32031 6.65039Z" stroke="black" stroke-linecap="round" stroke-linejoin="round"/>
</svg>
