<svg width="29" height="31" viewBox="0 0 29 31" fill="none" xmlns="http://www.w3.org/2000/svg">
<path d="M11.3732 1.04819C13.3606 0.631418 15.4129 0.630414 17.4007 1.04524C17.5332 1.91937 17.8609 2.75242 18.3596 3.48246C18.8583 4.2125 19.5151 4.82077 20.2812 5.26203C21.0467 5.70483 21.9022 5.96935 22.784 6.03593C23.6658 6.1025 24.5513 5.96942 25.3746 5.64658C26.7276 7.1613 27.7525 8.93963 28.3847 10.8697C27.6942 11.4216 27.137 12.122 26.7544 12.9189C26.3717 13.7157 26.1736 14.5886 26.1747 15.4725C26.1736 16.3568 26.3721 17.2299 26.7552 18.0268C27.1384 18.8237 27.6964 19.5239 28.3877 20.0753C27.7517 22.0038 26.7256 23.7807 25.3732 25.2955C24.5501 24.9729 23.6648 24.8399 22.7833 24.9065C21.9017 24.9731 21.0465 25.2375 20.2812 25.68C19.5157 26.1212 18.8594 26.7291 18.361 27.4585C17.8626 28.188 17.5349 29.0204 17.4022 29.8939C15.4149 30.3116 13.3627 30.3136 11.3746 29.8998C11.2428 29.0249 10.9154 28.1909 10.4167 27.4601C9.91798 26.7292 9.26084 26.1203 8.4942 25.6786C7.72858 25.236 6.87305 24.9718 5.99121 24.9054C5.10938 24.8391 4.22394 24.9724 3.40075 25.2955C2.0476 23.7803 1.02273 22.0015 0.390642 20.0709C1.08076 19.5193 1.63779 18.8194 2.02039 18.0231C2.40299 17.2268 2.60134 16.3545 2.6007 15.471C2.60143 14.5868 2.40284 13.7139 2.0197 12.917C1.63657 12.1201 1.07874 11.4198 0.387695 10.8682C1.0237 8.93976 2.04983 7.16283 3.40222 5.64806C4.22532 5.97067 5.11055 6.10362 5.99211 6.03705C6.87366 5.97047 7.72888 5.70607 8.4942 5.26351C9.25968 4.82238 9.91599 4.2145 10.4144 3.48501C10.9128 2.75551 11.2405 1.92314 11.3732 1.04966V1.04819ZM14.3877 19.8926C15.56 19.8926 16.6843 19.4269 17.5132 18.598C18.3421 17.7691 18.8078 16.6448 18.8078 15.4725C18.8078 14.3002 18.3421 13.176 17.5132 12.347C16.6843 11.5181 15.56 11.0524 14.3877 11.0524C13.2154 11.0524 12.0911 11.5181 11.2622 12.347C10.4333 13.176 9.96757 14.3002 9.96757 15.4725C9.96757 16.6448 10.4333 17.7691 11.2622 18.598C12.0911 19.4269 13.2154 19.8926 14.3877 19.8926Z" fill="#DEDEDE"/>
</svg>
