<svg width="21" height="21" viewBox="0 0 21 21" fill="none" xmlns="http://www.w3.org/2000/svg">
<path d="M17.1367 20.2808C16.1992 20.2808 15.4023 19.9891 14.7461 19.4058C14.0898 18.8224 13.7617 18.1141 13.7617 17.2808C13.7617 17.1641 13.7711 17.0431 13.7898 16.9178C13.8086 16.7931 13.8367 16.6808 13.8742 16.5808L5.94297 12.4808C5.62422 12.7308 5.26797 12.9264 4.87422 13.0678C4.48047 13.2098 4.06797 13.2808 3.63672 13.2808C2.69922 13.2808 1.90234 12.9891 1.24609 12.4058C0.589844 11.8224 0.261719 11.1141 0.261719 10.2808C0.261719 9.44743 0.589844 8.73909 1.24609 8.15576C1.90234 7.57243 2.69922 7.28076 3.63672 7.28076C4.06797 7.28076 4.48047 7.35143 4.87422 7.49276C5.26797 7.63476 5.62422 7.83076 5.94297 8.08076L13.8742 3.98076C13.8367 3.88076 13.8086 3.76843 13.7898 3.64376C13.7711 3.51843 13.7617 3.39743 13.7617 3.28076C13.7617 2.44743 14.0898 1.73909 14.7461 1.15576C15.4023 0.572428 16.1992 0.280762 17.1367 0.280762C18.0742 0.280762 18.8711 0.572428 19.5273 1.15576C20.1836 1.73909 20.5117 2.44743 20.5117 3.28076C20.5117 4.11409 20.1836 4.82243 19.5273 5.40576C18.8711 5.9891 18.0742 6.28076 17.1367 6.28076C16.7055 6.28076 16.293 6.20976 15.8992 6.06776C15.5055 5.92643 15.1492 5.73076 14.8305 5.48076L6.89922 9.58076C6.93672 9.68076 6.96484 9.7931 6.98359 9.91776C7.00234 10.0431 7.01172 10.1641 7.01172 10.2808C7.01172 10.3974 7.00234 10.5181 6.98359 10.6428C6.96484 10.7681 6.93672 10.8808 6.89922 10.9808L14.8305 15.0808C15.1492 14.8308 15.5055 14.6348 15.8992 14.4928C16.293 14.3514 16.7055 14.2808 17.1367 14.2808C18.0742 14.2808 18.8711 14.5724 19.5273 15.1558C20.1836 15.7391 20.5117 16.4474 20.5117 17.2808C20.5117 18.1141 20.1836 18.8224 19.5273 19.4058C18.8711 19.9891 18.0742 20.2808 17.1367 20.2808ZM17.1367 4.28076C17.4555 4.28076 17.7225 4.18509 17.9377 3.99376C18.1537 3.80176 18.2617 3.5641 18.2617 3.28076C18.2617 2.99743 18.1537 2.75976 17.9377 2.56776C17.7225 2.37643 17.4555 2.28076 17.1367 2.28076C16.818 2.28076 16.551 2.37643 16.3357 2.56776C16.1197 2.75976 16.0117 2.99743 16.0117 3.28076C16.0117 3.5641 16.1197 3.80176 16.3357 3.99376C16.551 4.18509 16.818 4.28076 17.1367 4.28076ZM3.63672 11.2808C3.95547 11.2808 4.22284 11.1848 4.43884 10.9928C4.65409 10.8014 4.76172 10.5641 4.76172 10.2808C4.76172 9.99743 4.65409 9.75976 4.43884 9.56776C4.22284 9.37643 3.95547 9.28076 3.63672 9.28076C3.31797 9.28076 3.05059 9.37643 2.83459 9.56776C2.61934 9.75976 2.51172 9.99743 2.51172 10.2808C2.51172 10.5641 2.61934 10.8014 2.83459 10.9928C3.05059 11.1848 3.31797 11.2808 3.63672 11.2808ZM17.1367 18.2808C17.4555 18.2808 17.7225 18.1848 17.9377 17.9928C18.1537 17.8014 18.2617 17.5641 18.2617 17.2808C18.2617 16.9974 18.1537 16.7601 17.9377 16.5688C17.7225 16.3768 17.4555 16.2808 17.1367 16.2808C16.818 16.2808 16.551 16.3768 16.3357 16.5688C16.1197 16.7601 16.0117 16.9974 16.0117 17.2808C16.0117 17.5641 16.1197 17.8014 16.3357 17.9928C16.551 18.1848 16.818 18.2808 17.1367 18.2808Z" fill="black"/>
</svg>
